<svg width="364" height="115" viewBox="0 0 364 115" fill="none" xmlns="http://www.w3.org/2000/svg">
<g clip-path="url(#clip0_1_2)">
<path d="M113.36 17.384C113.019 18.4933 112.72 19.7307 112.464 21.096C112.208 22.4613 111.824 23.8267 111.312 25.192C107.984 34.5787 104.656 44.008 101.328 53.48C98 62.952 94.5867 72.3813 91.088 81.768C90.4907 83.4747 89.7653 85.1813 88.912 86.888C88.0587 88.5093 87.0773 90.088 85.968 91.624C83.92 94.8667 81.5307 96.6587 78.8 97C76.0693 97.256 73.3387 96.0613 70.608 93.416C66.6827 89.4907 62.8 85.608 58.96 81.768C55.12 77.8427 51.2373 73.96 47.312 70.12C46.4587 69.2667 45.6053 68.4987 44.752 67.816C43.984 67.048 43.1307 66.28 42.192 65.512C40.144 63.72 38.6933 62.9093 37.84 63.08C36.9867 63.2507 36.048 64.5733 35.024 67.048C33.488 70.7173 31.952 74.3867 30.416 78.056C28.9653 81.7253 27.472 85.352 25.936 88.936C24.8267 91.5813 23.6747 94.2267 22.48 96.872C21.3707 99.432 20.2187 102.035 19.024 104.68C17.488 108.093 14.8427 109.715 11.088 109.544C8.528 109.373 6.608 108.563 5.328 107.112C4.048 105.661 3.70667 103.699 4.304 101.224C5.24267 97.9813 6.224 94.7387 7.248 91.496C8.35733 88.2533 9.59467 85.096 10.96 82.024C13.1787 76.8187 15.568 71.7413 18.128 66.792C20.7733 61.7573 23.2053 56.68 25.424 51.56C26.1067 49.9387 26.448 48.1893 26.448 46.312C26.5333 44.4347 26.576 42.5573 26.576 40.68C26.576 39.656 26.4053 38.632 26.064 37.608C25.7227 36.584 25.5093 35.5173 25.424 34.408C25.3387 32.5307 25.808 31.208 26.832 30.44C27.856 29.5867 29.264 29.2453 31.056 29.416C31.6533 29.5013 32.336 29.3733 33.104 29.032C33.872 28.6907 34.384 28.3067 34.64 27.88C35.2373 26.856 35.664 25.7893 35.92 24.68C36.2613 23.5707 36.6027 22.4613 36.944 21.352C37.6267 19.3893 38.2667 17.4267 38.864 15.464C39.5467 13.416 40.3147 11.4533 41.168 9.576C42.2773 7.61333 43.6427 6.33333 45.264 5.73599C46.8853 5.13866 48.5493 5.224 50.256 5.992C54.7787 7.95466 56.3147 11.2827 54.864 15.976C53.4987 20.072 52.0907 24.168 50.64 28.264C49.2747 32.36 47.9947 36.456 46.8 40.552C46.4587 41.832 46.5013 43.368 46.928 45.16C47.3547 46.8667 47.9947 48.232 48.848 49.256C52.0053 53.0107 55.248 56.7227 58.576 60.392C61.904 64.0613 65.2747 67.7307 68.688 71.4C71.0773 73.7893 72.8693 74.856 74.064 74.6C75.344 74.344 76.5813 72.5947 77.776 69.352C80.848 60.7333 83.92 52.1147 86.992 43.496C90.064 34.792 93.136 26.1307 96.208 17.512C96.6347 16.3173 97.1893 15.1653 97.872 14.056C98.64 12.9467 99.3653 11.8373 100.048 10.728C100.987 9.53333 102.096 8.68 103.376 8.168C104.656 7.57066 106.107 7.656 107.728 8.424C109.435 9.27733 110.8 10.4293 111.824 11.88C112.933 13.2453 113.445 15.08 113.36 17.384ZM33.36 33.768C32.1653 33.5973 31.1413 33.9813 30.288 34.92C29.4347 35.7733 29.0933 36.7973 29.264 37.992V38.12C29.52 39.8267 29.9467 41.6187 30.544 43.496C31.1413 45.288 31.1413 46.952 30.544 48.488C29.1787 52.328 27.6427 56.168 25.936 60.008C24.2293 63.7627 22.2667 67.3893 20.048 70.888C16.976 75.496 14.544 80.3173 12.752 85.352C11.0453 90.3867 9.25333 95.3787 7.376 100.328C7.29067 100.499 7.20533 100.755 7.12 101.096C7.12 101.437 7.20533 101.693 7.376 101.864C7.80267 102.632 8.22933 103.443 8.656 104.296C9.08267 105.149 9.63733 105.747 10.32 106.088C10.9173 106.259 11.6853 106.173 12.624 105.832C13.5627 105.491 14.2453 105.064 14.672 104.552C15.44 103.613 16.08 102.632 16.592 101.608C17.1893 100.584 17.6587 99.6027 18 98.664C20.4747 92.8613 22.9493 87.0587 25.424 81.256C27.8987 75.368 30.3307 69.48 32.72 63.592C34.0853 60.3493 35.6213 58.6 37.328 58.344C39.0347 58.0027 41.0827 59.0693 43.472 61.544C47.9947 66.152 52.5173 70.8027 57.04 75.496C61.648 80.104 66.1707 84.712 70.608 89.32C71.0347 89.7467 71.4613 90.216 71.888 90.728C72.4 91.1547 72.912 91.5813 73.424 92.008C75.8987 93.8853 77.8613 94.6107 79.312 94.184C80.848 93.7573 82.1707 92.0933 83.28 89.192C86.096 82.1093 88.912 75.0693 91.728 68.072C94.544 60.9893 97.2747 53.864 99.92 46.696C101.627 42.0027 103.291 37.3093 104.912 32.616C106.533 27.9227 108.155 23.272 109.776 18.664C110.288 17.128 110.416 15.72 110.16 14.44C109.904 13.16 109.051 12.2213 107.6 11.624C105.979 10.9413 104.656 11.0693 103.632 12.008C102.608 12.8613 101.755 13.928 101.072 15.208C100.731 15.8053 100.475 16.4453 100.304 17.128C100.133 17.8107 99.92 18.4933 99.664 19.176C96.5067 28.2213 93.3493 37.2667 90.192 46.312C87.0347 55.3573 83.8347 64.36 80.592 73.32C79.2267 76.9893 77.6907 79.08 75.984 79.592C74.3627 80.0187 72.1013 78.9093 69.2 76.264C64.7627 71.9973 60.4107 67.6027 56.144 63.08C51.9627 58.5573 47.8667 53.9493 43.856 49.256C43.0027 48.3173 42.5333 46.9093 42.448 45.032C42.3627 43.0693 42.4907 41.4053 42.832 40.04C43.9413 36.2 45.2213 32.4027 46.672 28.648C48.1227 24.808 49.5307 21.0533 50.896 17.384C51.152 16.7013 51.408 15.976 51.664 15.208C52.0053 14.44 52.0907 13.7573 51.92 13.16C51.7493 12.4773 51.408 11.752 50.896 10.984C50.384 10.1307 49.7867 9.61866 49.104 9.448C48.5067 9.27733 47.7387 9.36266 46.8 9.70399C45.8613 10.0453 45.264 10.472 45.008 10.984C43.8133 13.6293 42.704 16.36 41.68 19.176C40.656 21.9067 39.6747 24.6373 38.736 27.368C37.8827 30.0133 37.1573 31.8053 36.56 32.744C36.048 33.5973 34.9813 33.9387 33.36 33.768ZM163.759 34.152C163.418 39.1013 162.436 43.624 160.815 47.72C159.194 51.816 157.231 55.7413 154.927 59.496C153.988 61.032 153.391 62.184 153.135 62.952C152.879 63.72 153.05 64.36 153.647 64.872C154.244 65.2987 155.354 65.9813 156.975 66.92C161.754 69.6507 165.082 73.704 166.959 79.08C167.386 80.2747 167.855 81.512 168.367 82.792C168.879 83.9867 169.476 85.1813 170.159 86.376C171.524 88.5093 172.932 89.8747 174.383 90.472C175.919 91.0693 177.882 91.0693 180.271 90.472C181.807 90.0453 183.172 89.96 184.367 90.216C185.562 90.472 186.543 91.368 187.311 92.904C187.823 94.0133 187.61 95.336 186.671 96.872C185.732 98.3227 184.452 99.304 182.831 99.816C180.186 100.84 177.498 101.395 174.767 101.48C172.036 101.565 169.306 100.968 166.575 99.688C165.722 99.2613 164.911 99.0053 164.143 98.92C163.46 98.92 162.65 99.3893 161.711 100.328C158.298 104.168 154.458 106.643 150.191 107.752C145.924 108.947 141.359 108.861 136.495 107.496C132.314 106.301 128.943 104.253 126.383 101.352C123.908 98.536 122.372 94.9947 121.775 90.728C121.178 85.9493 121.647 81.512 123.183 77.416C124.804 73.2347 127.706 69.8213 131.887 67.176C137.178 63.9333 141.146 59.88 143.791 55.016C146.522 50.152 148.74 44.9893 150.447 39.528C150.874 38.0773 150.959 36.7547 150.703 35.56C150.532 34.3653 149.85 33.3413 148.655 32.488C147.375 31.5493 146.052 31.1653 144.687 31.336C143.322 31.4213 142.084 31.976 140.975 33C139.866 34.024 138.884 35.176 138.031 36.456C137.178 37.6507 136.324 38.888 135.471 40.168C134.703 41.448 133.892 42.6427 133.039 43.752C132.271 44.776 130.948 45.032 129.071 44.52C127.364 43.9227 126.212 43.0267 125.615 41.832C125.103 40.552 124.89 39.1013 124.975 37.48C125.146 33.4693 126.724 29.7573 129.711 26.344C132.783 22.9307 136.538 20.6267 140.975 19.432C145.156 18.3227 149.167 18.2373 153.007 19.176C156.847 20.1147 159.834 22.3333 161.967 25.832C162.735 26.9413 163.247 28.264 163.503 29.8C163.844 31.2507 163.93 32.7013 163.759 34.152ZM124.719 87.4C124.548 92.9467 125.914 97.256 128.815 100.328C131.716 103.485 136.41 105.619 142.895 106.728C146.906 107.24 150.319 106.6 153.135 104.808C155.951 103.101 158.554 100.627 160.943 97.384C161.882 96.104 162.778 95.4213 163.631 95.336C164.484 95.1653 165.551 95.6347 166.831 96.744C168.794 98.3653 171.012 99.304 173.487 99.56C175.962 99.9013 178.436 99.7307 180.911 99.048C181.594 98.8773 182.319 98.408 183.087 97.64C183.855 96.872 184.111 96.0613 183.855 95.208C183.684 94.5253 183.087 94.0133 182.063 93.672C181.124 93.2453 179.93 93.288 178.479 93.8C176.09 94.056 174.084 93.7573 172.463 92.904C170.842 92.0507 169.519 90.5147 168.495 88.296C167.898 87.1013 167.343 85.864 166.831 84.584C166.404 83.304 165.892 82.024 165.295 80.744C164.1 78.0133 162.522 75.5813 160.559 73.448C158.682 71.2293 156.25 69.5227 153.263 68.328C151.044 67.3893 149.85 66.4933 149.679 65.64C149.508 64.7867 149.978 63.2933 151.087 61.16C152.794 57.576 154.5 53.992 156.207 50.408C157.999 46.7387 159.364 43.0267 160.303 39.272C161.498 34.5787 161.242 30.6107 159.535 27.368C157.828 24.04 154.287 22.0773 148.911 21.48C146.18 21.224 143.492 21.48 140.847 22.248C138.202 23.016 135.77 24.424 133.551 26.472C130.138 29.6293 128.218 33.5547 127.791 38.248C127.791 38.76 127.876 39.4 128.047 40.168C128.303 40.936 128.73 41.4053 129.327 41.576C129.924 41.7467 130.479 41.576 130.991 41.064C131.588 40.552 132.058 40.1253 132.399 39.784C133.167 38.5893 133.85 37.3947 134.447 36.2C135.044 35.0053 135.727 33.8533 136.495 32.744C137.946 30.5253 139.78 28.9893 141.999 28.136C144.303 27.2827 146.436 27.2827 148.399 28.136C150.532 28.9893 152.026 30.3973 152.879 32.36C153.818 34.3227 153.946 36.7547 153.263 39.656C151.898 45.6293 149.764 51.176 146.863 56.296C144.047 61.416 139.951 65.64 134.575 68.968C130.65 71.3573 128.047 74.216 126.767 77.544C125.572 80.872 124.89 84.1573 124.719 87.4ZM160.431 85.224C160.431 87.8693 159.62 90.4293 157.999 92.904C156.463 95.3787 154.415 97.384 151.855 98.92C149.38 100.456 146.778 101.267 144.047 101.352C139.951 101.437 136.58 100.157 133.935 97.512C131.375 94.8667 130.052 91.4107 129.967 87.144C129.882 84.4987 130.479 82.024 131.759 79.72C133.039 77.416 134.703 75.5813 136.751 74.216C138.884 72.7653 141.146 72.1253 143.535 72.296C146.607 72.4667 149.38 72.9787 151.855 73.832C154.415 74.6 156.463 75.88 157.999 77.672C159.62 79.464 160.431 81.9813 160.431 85.224ZM132.783 86.76C132.698 89.6613 133.722 92.264 135.855 94.568C137.988 96.7867 140.42 97.9387 143.151 98.024C145.626 98.1093 147.93 97.5547 150.063 96.36C152.282 95.1653 154.074 93.5867 155.439 91.624C156.89 89.6613 157.615 87.5707 157.615 85.352C157.7 83.6453 157.103 82.024 155.823 80.488C154.543 78.8667 152.922 77.544 150.959 76.52C149.082 75.496 147.076 74.984 144.943 74.984C141.444 74.8987 138.543 75.9653 136.239 78.184C133.935 80.4027 132.783 83.2613 132.783 86.76ZM196.558 14.056C196.643 11.0693 197.497 8.59466 199.118 6.632C200.825 4.584 202.873 3.60266 205.262 3.688C206.713 3.688 208.121 4.15733 209.486 5.09599C210.937 6.03466 212.131 7.22933 213.07 8.67999C214.009 10.0453 214.478 11.496 214.478 13.032C214.563 14.7387 214.094 16.4027 213.07 18.024C212.046 19.6453 210.766 20.968 209.23 21.992C207.694 23.016 206.073 23.5707 204.366 23.656C202.062 23.656 200.185 22.8027 198.734 21.096C197.283 19.304 196.558 16.9573 196.558 14.056ZM199.758 14.056C199.673 18.3227 201.123 20.4987 204.11 20.584C205.987 20.6693 207.609 19.9867 208.974 18.536C210.425 17.0853 211.193 15.3787 211.278 13.416C211.278 11.7093 210.638 10.1733 209.358 8.808C208.163 7.44266 206.798 6.75999 205.262 6.75999C203.641 6.67466 202.361 7.31466 201.422 8.67999C200.483 9.96 199.929 11.752 199.758 14.056ZM197.71 51.944C198.137 48.9573 199.033 46.9093 200.398 45.8C201.763 44.6907 203.427 44.264 205.39 44.52C207.779 44.8613 209.571 45.8853 210.766 47.592C211.961 49.2987 212.558 51.56 212.558 54.376C212.473 59.496 212.473 64.6587 212.558 69.864C212.729 74.984 212.771 80.104 212.686 85.224C212.601 88.2107 212.473 91.1547 212.302 94.056C212.131 96.9573 211.961 99.9013 211.79 102.888C211.705 105.021 210.894 106.856 209.358 108.392C207.822 110.013 206.073 110.909 204.11 111.08C201.721 111.251 200.057 110.653 199.118 109.288C198.179 107.923 197.497 106.301 197.07 104.424C196.729 102.888 196.473 101.309 196.302 99.688C196.217 98.0667 196.174 96.4453 196.174 94.824C196.089 92.1787 196.046 89.576 196.046 87.016C196.046 84.3707 196.046 81.7253 196.046 79.08C196.046 79.08 196.046 78.1413 196.046 76.264C196.131 74.3013 196.217 71.8693 196.302 68.968C196.473 65.9813 196.686 62.952 196.942 59.88C197.198 56.808 197.454 54.1627 197.71 51.944ZM208.59 60.904C208.59 59.4533 208.59 58.0027 208.59 56.552C208.675 55.1013 208.633 53.6933 208.462 52.328C208.377 51.816 208.035 51.2613 207.438 50.664C206.926 50.0667 206.414 49.7253 205.902 49.64C205.731 49.5547 205.305 49.4267 204.622 49.256C203.939 49.0853 203.214 49.0853 202.446 49.256C201.678 49.4267 201.038 50.024 200.526 51.048C200.014 52.072 199.758 53.8213 199.758 56.296C199.843 60.7333 199.886 65.128 199.886 69.48C199.971 73.7467 199.929 78.1413 199.758 82.664C199.673 85.5653 199.63 88.7653 199.63 92.264C199.63 95.7627 199.715 98.92 199.886 101.736C199.971 102.589 200.057 103.571 200.142 104.68C200.227 105.789 200.526 106.728 201.038 107.496C201.55 108.264 202.531 108.605 203.982 108.52C205.262 108.435 206.158 108.008 206.67 107.24C207.182 106.472 207.481 105.533 207.566 104.424C207.737 103.315 207.822 102.333 207.822 101.48C207.822 98.8347 207.822 95.7627 207.822 92.264C207.907 88.68 207.993 85.096 208.078 81.512C208.163 77.8427 208.206 74.472 208.206 71.4C208.291 68.2427 208.334 65.7253 208.334 63.848C208.419 61.8853 208.505 60.904 208.59 60.904ZM233.705 94.568C233.705 95.9333 233.748 97.3413 233.833 98.792C233.918 100.243 233.876 101.693 233.705 103.144C233.62 105.448 232.894 107.155 231.529 108.264C230.249 109.373 228.756 109.885 227.049 109.8C225.513 109.629 224.19 108.861 223.081 107.496C221.972 106.131 221.46 104.467 221.545 102.504C221.716 98.4933 221.886 94.4827 222.057 90.472C222.313 86.376 222.526 82.3227 222.697 78.312C223.038 73.2773 223.38 68.2 223.721 63.08C224.062 57.96 224.404 52.8827 224.745 47.848C224.745 46.4827 224.873 45.16 225.129 43.88C225.47 42.4293 226.153 41.448 227.177 40.936C228.286 40.3387 229.524 40.0827 230.889 40.168C232.254 40.2533 233.492 40.5947 234.601 41.192C235.71 41.7893 236.265 42.6853 236.265 43.88C236.436 46.0133 236.436 48.1467 236.265 50.28C236.094 52.4133 235.966 54.504 235.881 56.552C235.796 57.6613 235.71 58.728 235.625 59.752C235.625 60.776 235.582 61.8 235.497 62.824C235.326 64.4453 235.156 65.6827 234.985 66.536C234.9 67.304 235.113 67.6453 235.625 67.56C236.222 67.4747 237.417 66.9627 239.209 66.024C242.281 64.3173 245.652 63.464 249.321 63.464C253.076 63.3787 256.404 63.6773 259.305 64.36C263.572 65.2133 266.772 67.1333 268.905 70.12C271.124 73.1067 272.617 76.776 273.385 81.128C274.068 84.7973 274.452 88.5093 274.537 92.264C274.708 95.9333 274.878 99.6453 275.049 103.4C275.134 103.912 275.049 104.467 274.793 105.064C274.622 105.661 274.409 106.216 274.153 106.728C273.556 108.179 272.66 109.117 271.465 109.544C270.27 109.971 268.99 110.099 267.625 109.928C266.345 109.757 265.449 109.288 264.937 108.52C264.425 107.752 264.169 106.856 264.169 105.832C264.169 102.845 264.212 99.944 264.297 97.128C264.468 94.3973 264.51 91.5387 264.425 88.552C264.425 81.2987 260.969 76.9893 254.057 75.624C252.436 75.368 250.772 75.24 249.065 75.24C247.444 75.1547 245.78 75.24 244.073 75.496C240.318 76.1787 237.63 77.7573 236.009 80.232C234.388 82.7067 233.577 85.9067 233.577 89.832C233.577 90.7707 233.577 91.7947 233.577 92.904C233.662 94.0133 233.705 94.568 233.705 94.568ZM235.881 70.888C235.113 71.2293 234.345 71.1867 233.577 70.76C232.809 70.248 232.425 69.5653 232.425 68.712C232.425 68.1147 232.425 67.5173 232.425 66.92C232.425 66.3227 232.468 65.7253 232.553 65.128C232.724 61.8853 232.894 58.6853 233.065 55.528C233.321 52.2853 233.492 49.0853 233.577 45.928C233.577 45.3307 233.278 44.648 232.681 43.88C232.084 43.0267 231.401 42.5573 230.633 42.472C229.95 42.3867 229.31 42.728 228.713 43.496C228.201 44.1787 227.86 44.8187 227.689 45.416C227.348 46.2693 227.134 47.1653 227.049 48.104C227.049 49.0427 227.049 49.9813 227.049 50.92C226.708 57.6613 226.366 64.4027 226.025 71.144C225.769 77.8853 225.47 84.6693 225.129 91.496C225.044 93.7147 224.958 95.9333 224.873 98.152C224.873 100.371 224.916 102.589 225.001 104.808C225.086 105.32 225.342 105.96 225.769 106.728C226.281 107.581 226.921 108.008 227.689 108.008C229.481 108.008 230.505 106.387 230.761 103.144C230.932 100.157 231.017 97.1707 231.017 94.184C231.017 91.1973 231.188 88.2107 231.529 85.224C232.126 81.0427 233.534 77.8853 235.753 75.752C238.057 73.6187 241.257 72.3387 245.353 71.912C247.913 71.656 250.473 71.656 253.033 71.912C257.556 72.3387 260.926 73.6613 263.145 75.88C265.449 78.0133 266.857 81.3413 267.369 85.864C267.54 87.7413 267.582 89.6613 267.497 91.624C267.412 93.5013 267.326 95.336 267.241 97.128C267.241 97.7253 267.156 98.6213 266.985 99.816C266.814 101.096 266.686 102.376 266.601 103.656C266.601 104.936 266.729 106.045 266.985 106.984C267.326 107.923 267.966 108.392 268.905 108.392C271.124 108.392 272.233 107.112 272.233 104.552C272.233 101.48 272.233 98.3653 272.233 95.208C272.318 92.0507 272.276 88.8933 272.105 85.736C272.02 82.92 271.252 80.0187 269.801 77.032C268.436 73.96 266.516 71.5707 264.041 69.864C261.225 67.9013 258.452 66.8347 255.721 66.664C253.076 66.408 250.004 66.4933 246.505 66.92C245.054 67.0907 243.305 67.6027 241.257 68.456C239.209 69.3093 237.417 70.12 235.881 70.888ZM285.433 14.056C285.518 11.0693 286.372 8.59466 287.993 6.632C289.7 4.584 291.748 3.60266 294.137 3.688C295.588 3.688 296.996 4.15733 298.361 5.09599C299.812 6.03466 301.006 7.22933 301.945 8.67999C302.884 10.0453 303.353 11.496 303.353 13.032C303.438 14.7387 302.969 16.4027 301.945 18.024C300.921 19.6453 299.641 20.968 298.105 21.992C296.569 23.016 294.948 23.5707 293.241 23.656C290.937 23.656 289.06 22.8027 287.609 21.096C286.158 19.304 285.433 16.9573 285.433 14.056ZM288.633 14.056C288.548 18.3227 289.998 20.4987 292.985 20.584C294.862 20.6693 296.484 19.9867 297.849 18.536C299.3 17.0853 300.068 15.3787 300.153 13.416C300.153 11.7093 299.513 10.1733 298.233 8.808C297.038 7.44266 295.673 6.75999 294.137 6.75999C292.516 6.67466 291.236 7.31466 290.297 8.67999C289.358 9.96 288.804 11.752 288.633 14.056ZM286.585 51.944C287.012 48.9573 287.908 46.9093 289.273 45.8C290.638 44.6907 292.302 44.264 294.265 44.52C296.654 44.8613 298.446 45.8853 299.641 47.592C300.836 49.2987 301.433 51.56 301.433 54.376C301.348 59.496 301.348 64.6587 301.433 69.864C301.604 74.984 301.646 80.104 301.561 85.224C301.476 88.2107 301.348 91.1547 301.177 94.056C301.006 96.9573 300.836 99.9013 300.665 102.888C300.58 105.021 299.769 106.856 298.233 108.392C296.697 110.013 294.948 110.909 292.985 111.08C290.596 111.251 288.932 110.653 287.993 109.288C287.054 107.923 286.372 106.301 285.945 104.424C285.604 102.888 285.348 101.309 285.177 99.688C285.092 98.0667 285.049 96.4453 285.049 94.824C284.964 92.1787 284.921 89.576 284.921 87.016C284.921 84.3707 284.921 81.7253 284.921 79.08C284.921 79.08 284.921 78.1413 284.921 76.264C285.006 74.3013 285.092 71.8693 285.177 68.968C285.348 65.9813 285.561 62.952 285.817 59.88C286.073 56.808 286.329 54.1627 286.585 51.944ZM297.465 60.904C297.465 59.4533 297.465 58.0027 297.465 56.552C297.55 55.1013 297.508 53.6933 297.337 52.328C297.252 51.816 296.91 51.2613 296.313 50.664C295.801 50.0667 295.289 49.7253 294.777 49.64C294.606 49.5547 294.18 49.4267 293.497 49.256C292.814 49.0853 292.089 49.0853 291.321 49.256C290.553 49.4267 289.913 50.024 289.401 51.048C288.889 52.072 288.633 53.8213 288.633 56.296C288.718 60.7333 288.761 65.128 288.761 69.48C288.846 73.7467 288.804 78.1413 288.633 82.664C288.548 85.5653 288.505 88.7653 288.505 92.264C288.505 95.7627 288.59 98.92 288.761 101.736C288.846 102.589 288.932 103.571 289.017 104.68C289.102 105.789 289.401 106.728 289.913 107.496C290.425 108.264 291.406 108.605 292.857 108.52C294.137 108.435 295.033 108.008 295.545 107.24C296.057 106.472 296.356 105.533 296.441 104.424C296.612 103.315 296.697 102.333 296.697 101.48C296.697 98.8347 296.697 95.7627 296.697 92.264C296.782 88.68 296.868 85.096 296.953 81.512C297.038 77.8427 297.081 74.472 297.081 71.4C297.166 68.2427 297.209 65.7253 297.209 63.848C297.294 61.8853 297.38 60.904 297.465 60.904ZM335.38 91.368C335.039 90.9413 334.569 90.7707 333.972 90.856C333.375 90.856 332.905 91.112 332.564 91.624C332.223 92.2213 331.881 92.8187 331.54 93.416C331.199 94.0133 330.815 94.568 330.388 95.08C328.767 97.4693 327.06 99.8587 325.268 102.248C323.561 104.723 321.812 107.155 320.02 109.544C318.996 110.995 317.887 111.848 316.692 112.104C315.497 112.36 314.345 112.104 313.236 111.336C312.212 110.653 311.572 109.544 311.316 108.008C311.06 106.557 311.401 105.192 312.34 103.912C314.644 100.925 316.905 97.9813 319.124 95.08C321.428 92.1787 323.775 89.2773 326.164 86.376C328.041 83.9867 328.212 81.8107 326.676 79.848C325.055 77.6293 323.391 75.4107 321.684 73.192C320.063 70.9733 318.399 68.7973 316.692 66.664C316.095 65.7253 315.455 64.8293 314.772 63.976C314.089 63.1227 313.492 62.2267 312.98 61.288C311.7 59.1547 312.169 57.1067 314.388 55.144C315.327 54.2907 316.308 54.0347 317.332 54.376C318.356 54.632 319.252 55.1013 320.02 55.784C320.873 56.3813 321.599 57.1067 322.196 57.96C322.879 58.728 323.519 59.5813 324.116 60.52C325.737 62.7387 327.273 65 328.724 67.304C330.26 69.5227 331.796 71.7413 333.332 73.96C333.503 74.216 333.972 74.472 334.74 74.728C335.508 74.8987 336.148 74.5573 336.66 73.704C337.087 73.192 337.769 72.2107 338.708 70.76C339.732 69.3093 340.841 67.7307 342.036 66.024C343.231 64.3173 344.383 62.7387 345.492 61.288C346.601 59.752 347.455 58.6 348.052 57.832C349.247 56.6373 350.569 55.784 352.02 55.272C352.617 55.1013 353.3 55.016 354.068 55.016C354.836 54.9307 355.391 55.1013 355.732 55.528C356.159 55.784 356.415 56.3387 356.5 57.192C356.671 57.96 356.671 58.5573 356.5 58.984C355.903 60.3493 355.22 61.7573 354.452 63.208C353.684 64.5733 352.831 65.896 351.892 67.176C350.441 69.3093 348.905 71.4853 347.284 73.704C345.748 75.8373 344.212 77.9707 342.676 80.104C341.396 81.896 341.439 83.7307 342.804 85.608C344.511 87.912 346.175 90.2587 347.796 92.648C349.417 95.0373 351.039 97.4267 352.66 99.816C353.172 100.584 353.684 101.309 354.196 101.992C354.793 102.675 355.305 103.443 355.732 104.296C357.268 107.539 356.585 109.971 353.684 111.592C350.868 113.043 348.521 112.36 346.644 109.544C345.023 106.813 343.401 104.083 341.78 101.352C340.159 98.6213 338.495 95.8907 336.788 93.16C336.617 92.8187 336.404 92.52 336.148 92.264C335.892 92.008 335.636 91.7093 335.38 91.368ZM336.66 88.68C337.684 90.3867 338.665 92.0933 339.604 93.8C340.628 95.5067 341.609 97.2133 342.548 98.92C343.487 100.371 344.468 101.864 345.492 103.4C346.516 105.021 347.54 106.6 348.564 108.136C348.905 108.477 349.375 108.819 349.972 109.16C350.655 109.587 351.295 109.672 351.892 109.416C352.489 109.16 352.831 108.648 352.916 107.88C353.001 107.197 353.044 106.557 353.044 105.96C352.959 105.363 352.745 104.765 352.404 104.168C352.148 103.656 351.807 103.144 351.38 102.632C349.503 99.816 347.54 96.9573 345.492 94.056C343.444 91.0693 341.439 88.1253 339.476 85.224C338.964 84.3707 338.665 83.6027 338.58 82.92C338.58 82.152 338.879 81.384 339.476 80.616C341.097 78.3973 342.676 76.1787 344.212 73.96C345.748 71.7413 347.284 69.5653 348.82 67.432C349.588 66.408 350.356 65.384 351.124 64.36C351.892 63.336 352.575 62.2693 353.172 61.16C353.343 60.7333 353.513 60.1787 353.684 59.496C353.855 58.728 353.727 58.1733 353.3 57.832C352.873 57.4907 352.361 57.4907 351.764 57.832C351.167 58.088 350.655 58.3867 350.228 58.728C349.46 59.4107 348.692 60.136 347.924 60.904C347.241 61.5867 346.601 62.3973 346.004 63.336C344.553 65.2133 343.145 67.2187 341.78 69.352C340.415 71.4 339.007 73.4053 337.556 75.368C336.447 76.9893 335.508 77.8 334.74 77.8C333.972 77.8 332.991 76.9893 331.796 75.368C330.26 73.1493 328.724 70.888 327.188 68.584C325.737 66.1947 324.244 63.8907 322.708 61.672C322.367 61.16 321.812 60.4347 321.044 59.496C320.276 58.5573 319.423 57.832 318.484 57.32C317.545 56.808 316.649 56.936 315.796 57.704C315.54 58.0453 315.369 58.5147 315.284 59.112C315.284 59.7093 315.327 60.2213 315.412 60.648C316.095 61.8427 316.82 62.9947 317.588 64.104C318.356 65.2133 319.167 66.3227 320.02 67.432C321.471 69.3093 322.921 71.1867 324.372 73.064C325.823 74.9413 327.231 76.8187 328.596 78.696C330.644 81.5973 330.516 84.584 328.212 87.656C324.287 92.776 320.319 97.9813 316.308 103.272C315.967 103.699 315.625 104.168 315.284 104.68C314.943 105.277 314.687 105.875 314.516 106.472C314.431 106.813 314.431 107.24 314.516 107.752C314.687 108.264 314.943 108.605 315.284 108.776C315.54 109.032 315.924 109.117 316.436 109.032C316.948 109.032 317.375 108.989 317.716 108.904C318.143 108.733 318.484 108.477 318.74 108.136C318.996 107.795 319.252 107.453 319.508 107.112C321.556 104.125 323.604 101.096 325.652 98.024C327.785 95.0373 329.919 92.008 332.052 88.936C332.479 87.9973 333.289 87.6133 334.484 87.784C335.679 87.9547 336.404 88.2533 336.66 88.68Z" fill="currentColor"/>
</g>
<defs>
<clipPath id="clip0_1_2">
<rect width="364" height="115" fill="white"/>
</clipPath>
</defs>
</svg>
